<?xml version="1.0" encoding="utf-8"?>
<!-- Generator: Adobe Illustrator 16.2.1, SVG Export Plug-In . SVG Version: 6.00 Build 0)  -->
<!DOCTYPE svg PUBLIC "-//W3C//DTD SVG 1.1//EN" "http://www.w3.org/Graphics/SVG/1.1/DTD/svg11.dtd">
<svg version="1.1" id="Layer_3" xmlns="http://www.w3.org/2000/svg" xmlns:xlink="http://www.w3.org/1999/xlink" x="0px" y="0px"
	 width="21.246px" height="15.316px" viewBox="0 0 21.246 15.316" enable-background="new 0 0 21.246 15.316" xml:space="preserve">
<g>
	<path fill="#FFFFFF" d="M12.591,3.526c-0.536-0.145-1.003-0.309-1.568-0.331c-0.562-0.021-1.107,0.025-1.651,0.156
		c-0.419,0.102-0.726,0.27-1.105,0.47c-0.354,0.186-0.68,0.486-0.983,0.742C7.118,4.699,6.901,4.847,6.783,5.024
		C6.646,5.229,6.589,5.556,6.507,5.798c-0.219,0.642-0.284,1.45-0.262,2.126C6.26,8.351,6.37,8.832,6.725,9.104
		C7.008,9.32,7.347,9.479,7.658,9.648c0.67,0.367,1.127,0.986,1.235,1.738c0.051,0.357,0.046,0.701,0.026,1.061
		c-0.041,0.79,0.652,0.715,1.287,0.734c0.281,0.008,0.606,0.064,0.879,0c0.194-0.046,0.319-0.168,0.501-0.238
		c0.337-0.133,0.462-0.07,0.625-0.448c0.207-0.476,0.073-1.018,0.282-1.485c0.217-0.489,0.764-0.852,1.091-1.267
		c0.391-0.495,0.524-1.164,0.725-1.747c0.23-0.67,0.437-1.233,0.436-1.961"/>
	<path fill="#D8D8D8" d="M11.177,4.438c0.97,0.192,1.491,0.644,1.874,1.547c0.286,0.679,0.385,1.322,0.418,2.046
		c0.036,0.783-0.449,1.295-0.541,2.026c0.638-0.631,1.339-1.212,1.821-1.99c0.562-0.911,0.368-2.661-0.217-3.513
		c-0.883-1.29-2.482-1.497-3.967-1.485C9.782,3.074,8.899,3.09,8.224,3.543C7.999,3.694,7.575,4.063,7.787,4.359
		c0.258,0.356,0.978-0.083,1.32-0.092C9.783,4.249,10.513,4.306,11.177,4.438z"/>
	<path fill="#D8D8D8" d="M9.065,9.317C8.109,9.238,7.861,8.504,7.897,7.689c0.418-0.022,0.861-0.013,1.275,0.052
		c0.267,0.041,0.694,0.273,0.95,0.156c0.215-0.099,0.143-0.376,0.154-0.6c0.691-0.078-0.316,1.405-0.436,1.607
		C9.667,9.2,9.414,9.346,9.065,9.317z"/>
	<path fill="none" d="M10.912,8.216c-0.062-0.109-0.059-0.451,0.062-0.567c0.25-0.241,0.166,0.066,0.301,0.213
		c0.249,0.272,0.771,0.197,1.129,0.178c0.3-0.017,0.881-0.192,1.108,0.061c0.432,0.48-0.839,0.426-1.108,0.507"/>
	<path fill="#D8D8D8" d="M13.674,8.714c-0.161,0.592-0.932,0.996-1.503,0.792c-0.346-0.126-1.093-0.735-0.869-1.177
		c0.175-0.344,0.937-0.181,1.242-0.219c0.319-0.041,0.432-0.145,0.612-0.394c0.117-0.161,0.258-0.765,0.419-0.779
		C14.073,6.895,13.743,8.458,13.674,8.714z"/>
	<g>
		<path fill="#020202" d="M15.58,6.921c-0.011-0.114-0.045-0.226-0.056-0.338c-0.017-0.174-0.017-0.347-0.032-0.519
			c-0.021-0.228-0.047-0.455-0.073-0.681c-0.015-0.119-0.067-0.223-0.128-0.325c-0.092-0.157-0.177-0.322-0.276-0.478
			c-0.067-0.104-0.159-0.195-0.229-0.297c-0.067-0.098-0.15-0.18-0.232-0.263c-0.076-0.078-0.146-0.161-0.221-0.24
			c-0.098-0.105-0.19-0.219-0.3-0.312c-0.114-0.098-0.245-0.175-0.368-0.26C13.583,3.152,13.5,3.102,13.425,3.04
			c-0.204-0.161-0.435-0.272-0.681-0.351C12.622,2.65,12.5,2.618,12.375,2.586c-0.083-0.022-0.168-0.039-0.253-0.055
			C12.021,2.514,11.92,2.5,11.816,2.483c-0.087-0.015-0.174-0.037-0.262-0.046c-0.184-0.021-0.367-0.033-0.549-0.052
			c-0.131-0.012-0.256,0.016-0.381,0.036c-0.059,0.01-0.113,0.03-0.17,0.036c-0.087,0.01-0.172,0.019-0.255,0.048
			c-0.03,0.013-0.065,0.013-0.099,0.014C9.902,2.525,9.707,2.547,9.516,2.602C9.329,2.653,9.145,2.721,8.96,2.781
			c-0.048,0.016-0.095,0.033-0.142,0.05C8.663,2.885,8.506,2.935,8.354,2.996C8.243,3.039,8.139,3.101,8.03,3.149
			c-0.054,0.024-0.111,0.037-0.165,0.06C7.819,3.227,7.768,3.241,7.731,3.272C7.65,3.344,7.575,3.424,7.498,3.5
			C7.436,3.562,7.371,3.624,7.307,3.687C7.287,3.704,7.264,3.721,7.244,3.74C7.13,3.86,7.033,3.991,6.941,4.128
			C6.893,4.203,6.844,4.279,6.797,4.354C6.69,4.527,6.599,4.71,6.498,4.886c-0.047,0.083-0.102,0.161-0.152,0.24
			c-0.025,0.041-0.049,0.08-0.07,0.123C6.166,5.454,6.126,5.681,6.083,5.904C6.065,5.989,6.053,6.075,6.05,6.161
			C6.045,6.52,6.028,6.883,6.055,7.24c0.077,0.989,0.379,1.98,1.143,2.664c0.303,0.271,0.646,0.536,1.03,0.67
			c0.301,0.106,0.639,0.088,0.675,0.491c0.052,0.585-0.074,1.232-0.105,1.823c-0.006,0.112-0.004,0.223-0.002,0.335
			c0.002,0.096,0.032,0.128,0.125,0.127c0.099-0.003,0.188,0.023,0.277,0.056c0.103,0.036,0.21,0.062,0.319,0.06
			c0.185-0.002,0.368-0.007,0.552-0.012c0.028,0,0.055-0.006,0.082-0.012c0.127-0.019,0.254-0.039,0.38-0.057
			c0.036-0.006,0.073-0.006,0.107-0.017c0.115-0.038,0.234-0.05,0.354-0.05c0.29,0,0.58-0.002,0.87,0
			c0.083,0,0.166,0.021,0.25,0.021c0.171,0.003,0.343,0.005,0.515,0.018c0.067,0.003,0.135,0.009,0.202,0.018
			c0.062,0.007,0.073-0.004,0.079-0.064c0.003-0.014,0.003-0.028,0-0.041c-0.003-0.042-0.011-0.08,0.002-0.123
			c0.008-0.033,0.003-0.087-0.019-0.109c-0.033-0.035-0.03-0.067-0.028-0.107c0-0.032,0.001-0.065-0.002-0.1
			c-0.008-0.176-0.02-0.352-0.027-0.525c-0.014-0.29-0.026-0.58-0.035-0.87c-0.006-0.206-0.127-0.545,0.051-0.709
			c0.073-0.069,0.264-0.125,0.361-0.179c0.244-0.136,0.509-0.267,0.732-0.438c0.316-0.242,0.676-0.544,0.919-0.865
			c0.271-0.358,0.382-0.79,0.493-1.218C15.457,7.63,15.615,7.354,15.58,6.921z M14.507,7.829c-0.034,0.184-0.085,0.36-0.15,0.525
			c-0.114,0.282-0.225,0.517-0.413,0.765c-0.231,0.304-0.551,0.51-0.869,0.702c-0.229,0.14-0.507,0.274-0.764,0.361
			c-0.316,0.104-0.355,0.183-0.285,0.521c0.074,0.361,0.036,0.719,0.067,1.087c0.023,0.255,0.064,0.51-0.105,0.713
			c-0.04,0-0.079,0.001-0.118,0.001c-0.005,0-0.007-0.001-0.011-0.001c-0.037-0.004-0.059-0.025-0.067-0.062
			c-0.013-0.062-0.027-0.125-0.037-0.188c-0.021-0.146-0.04-0.292-0.057-0.438c-0.008-0.07-0.01-0.14-0.013-0.207
			c-0.067-0.025-0.223-0.026-0.311-0.001c-0.005,0.038-0.011,0.079-0.013,0.121c0,0.064-0.001,0.132-0.002,0.198
			c0,0.091-0.001,0.18-0.002,0.27c-0.002,0.053-0.009,0.105-0.018,0.159c-0.005,0.043-0.031,0.068-0.079,0.064
			c-0.051-0.002-0.101,0.001-0.15-0.001c-0.002,0-0.004,0-0.006-0.001c-0.061-0.004-0.075-0.016-0.092-0.081
			c-0.006-0.026-0.011-0.054-0.011-0.082c0.004-0.192,0.009-0.385,0.014-0.577c0-0.025,0-0.051,0-0.078
			c-0.133-0.049-0.266-0.047-0.41-0.025c0,0.035,0,0.065,0,0.096c-0.002,0.075-0.002,0.151-0.002,0.227
			c0,0.092-0.001,0.185-0.002,0.275c-0.002,0.064-0.008,0.128-0.021,0.191c-0.012,0.061-0.025,0.066-0.085,0.068
			c-0.05,0.002-0.099,0.002-0.147,0c-0.005-0.001-0.008-0.001-0.012-0.001c-0.088-0.002-0.11-0.023-0.126-0.113
			c-0.004-0.023-0.006-0.049-0.008-0.074c-0.006-0.17-0.007-0.341,0.016-0.51c0.008-0.055,0-0.109,0-0.17c-0.12,0-0.238,0-0.367,0
			c0,0.114-0.002,0.224,0.004,0.333c0,0.01,0.002,0.019,0.002,0.028c0.008,0.136,0.007,0.271,0.008,0.408
			c0,0.022-0.076,0.085-0.082,0.106c-0.059-0.008-0.115-0.015-0.174-0.02c-0.03-0.002-0.062-0.006-0.092-0.009
			c-0.019-0.001-0.033-0.003-0.047-0.006c-0.018-0.032-0.029-0.069-0.039-0.111c-0.039-0.185,0.045-0.457,0.045-0.654
			c-0.001-0.39,0.143-1.038-0.096-1.387c-0.112-0.165-0.271-0.157-0.456-0.208C8.497,9.924,8.037,9.703,7.717,9.383
			c-0.349-0.351-0.634-0.87-0.786-1.344C6.744,7.457,6.789,6.861,7.01,6.312c0.258-0.641,0.623-1.008,1.084-1.517
			c0.079-0.088,0.171-0.166,0.262-0.243c0.082-0.067,0.171-0.125,0.257-0.188C8.686,4.31,8.754,4.247,8.831,4.198
			C8.902,4.155,8.984,4.13,9.058,4.093C9.209,4.016,9.37,3.994,9.537,4c0.202,0.007,0.399-0.033,0.597-0.068
			c0.209-0.039,0.419-0.072,0.632-0.059c0.163,0.009,0.327,0.026,0.491,0.038c0.13,0.01,0.262,0.016,0.392,0.026
			c0.055,0.004,0.11,0.011,0.166,0.024c0.105,0.023,0.21,0.052,0.314,0.081c0.061,0.019,0.119,0.043,0.179,0.066
			c0.053,0.021,0.102,0.047,0.153,0.066c0.26,0.098,0.501,0.229,0.734,0.378c0.144,0.09,0.255,0.215,0.366,0.34
			c0.478,0.537,0.917,0.886,0.992,1.655C14.594,6.95,14.589,7.405,14.507,7.829z"/>
		<path fill="#020202" d="M4.887,13.873c-0.085-0.227-0.406-0.132-0.59-0.113c-0.298,0.029-0.541-0.012-0.833-0.067
			c-0.639-0.12-0.753-0.612-0.78-1.163c-0.027-0.557-0.135-1.137-0.127-1.691C2.565,10.359,2.538,10,2.409,9.525
			C2.299,9.118,2.269,8.662,2.05,8.294C1.864,7.98,1.515,7.525,1.128,7.472C1.34,7.4,1.614,7.379,1.782,7.229
			c0.361-0.318,0.539-0.954,0.695-1.394c0.208-0.584,0.222-1.239,0.229-1.851c0.01-0.754-0.303-1.766,0.189-2.403
			C3.145,1.26,3.622,1.15,4.008,1.12C4.157,1.109,4.479,1.185,4.6,1.099c0.161-0.113,0.095-0.634,0.099-0.816
			C4.699,0.2,4.664,0.167,4.582,0.168c-0.037,0-0.074,0.002-0.108,0.01c-0.096,0.02-0.19,0.051-0.286,0.058
			C3.976,0.248,3.764,0.247,3.552,0.257C3.483,0.258,3.414,0.266,3.346,0.282C3.271,0.3,3.198,0.331,3.125,0.358
			C2.867,0.45,2.618,0.562,2.384,0.704C2.311,0.749,2.255,0.811,2.211,0.883c-0.029,0.05-0.056,0.101-0.077,0.153
			c-0.052,0.118-0.089,0.242-0.12,0.368c-0.032,0.126-0.07,0.253-0.099,0.38C1.88,1.95,1.831,2.116,1.823,2.285
			C1.809,2.628,1.812,2.972,1.816,3.314c0.005,0.237,0.046,0.473,0.031,0.71c-0.01,0.15-0.016,0.301-0.027,0.449
			C1.808,4.633,1.791,4.792,1.775,4.949c-0.006,0.047-0.01,0.095-0.021,0.14C1.692,5.333,1.627,5.574,1.566,5.817
			c-0.052,0.205-0.13,0.398-0.241,0.577c-0.046,0.072-0.102,0.134-0.168,0.18c-0.071,0.049-0.153,0.08-0.244,0.09
			C0.719,6.685,0.534,6.73,0.349,6.781C0.271,6.803,0.19,6.814,0.11,6.831C0.08,6.838,0.04,6.82,0.024,6.864
			C0.014,6.896-0.002,6.929,0,6.959c0.004,0.058,0.005,0.117,0.012,0.175c0.005,0.058,0.018,0.114,0.041,0.169
			c0.015,0.034,0.017,0.076,0.023,0.114C0.088,7.511,0.102,7.604,0.109,7.7c0.01,0.096,0.012,0.193,0.021,0.291
			C0.134,8.042,0.127,8.1,0.197,8.137c0.024-0.078,0.086-0.083,0.146-0.091c0.1-0.011,0.192,0.01,0.289,0.031
			c0.104,0.025,0.186,0.072,0.258,0.145c0.146,0.146,0.247,0.321,0.341,0.503c0.021,0.046,0.045,0.091,0.072,0.133
			C1.417,9.03,1.522,9.21,1.594,9.402c0.083,0.225,0.141,0.458,0.164,0.698c0.007,0.072,0.004,0.146,0.02,0.217
			c0.03,0.129,0.038,0.259,0.039,0.39c0,0.069,0.004,0.14,0.007,0.209c0.014,0.227,0.031,0.451,0.039,0.678
			c0.012,0.317,0.014,0.635,0.023,0.953c0.003,0.077,0.005,0.157,0.021,0.232c0.031,0.15,0.068,0.299,0.108,0.447
			c0.068,0.26,0.18,0.503,0.294,0.746c0.041,0.087,0.097,0.163,0.173,0.223c0.123,0.096,0.245,0.188,0.407,0.22
			c0.193,0.039,0.382,0.103,0.574,0.147c0.29,0.064,0.583,0.095,0.879,0.103c0.075,0.003,0.152,0.014,0.226,0.009
			c0.032-0.002,0.065-0.001,0.097-0.007s0.061-0.021,0.081-0.058c0.005-0.009,0.025-0.009,0.038-0.012
			c0.09-0.012,0.123-0.047,0.129-0.138C4.922,14.331,4.949,14.04,4.887,13.873z"/>
		<path fill="#020202" d="M21.265,7.928c0.001-0.009-0.005-0.018-0.006-0.025c-0.005-0.024-0.013-0.05-0.013-0.072
			c-0.007-0.3-0.012-0.597-0.021-0.896c-0.002-0.073-0.018-0.147-0.031-0.223c-0.007-0.037-0.029-0.062-0.072-0.07
			c-0.081-0.014-0.163-0.031-0.245-0.046c-0.173-0.027-0.329-0.106-0.487-0.171c-0.189-0.078-0.348-0.208-0.489-0.357
			c-0.108-0.115-0.202-0.237-0.235-0.398c-0.025-0.127-0.056-0.255-0.085-0.382c-0.067-0.296-0.099-0.595-0.095-0.897
			c0.006-0.479,0.009-0.96,0.002-1.439c-0.002-0.211-0.028-0.423-0.048-0.634c-0.013-0.144-0.031-0.288-0.052-0.431
			c-0.021-0.149-0.048-0.298-0.111-0.438c-0.055-0.118-0.104-0.239-0.152-0.361c-0.118-0.312-0.319-0.553-0.611-0.716
			c-0.015-0.009-0.029-0.017-0.045-0.023c-0.17-0.045-0.338-0.095-0.508-0.137c-0.241-0.059-0.484-0.105-0.724-0.172
			c-0.186-0.052-0.369-0.04-0.558-0.027c-0.039,0.002-0.076,0.021-0.089,0.063c-0.091,0.334-0.278,0.785,0.155,0.856
			c0.186,0.031,0.377,0.1,0.568,0.119c0.489,0.051,0.93,0.031,1.155,0.568c0.274,0.654,0.188,1.395,0.138,2.082
			c-0.07,0.969-0.013,2.307,0.602,3.119c0.301,0.398,0.616,0.431,1.034,0.628C20.061,7.362,19.61,7.76,19.51,7.887
			c-0.215,0.268-0.418,0.54-0.541,0.863c-0.32,0.834-0.246,1.677-0.284,2.545c-0.014,0.309-0.069,0.597-0.069,0.909
			c0,0.672-0.031,1.193-0.717,1.435c-0.222,0.078-0.43,0.095-0.651,0.128c-0.109,0.018-0.511-0.017-0.599,0.042
			c-0.211,0.142-0.045,0.808,0.135,0.918c0.24,0.148,0.834-0.077,1.117-0.064c0.136,0.006,0.271-0.01,0.404-0.056
			c0.116-0.042,0.239-0.073,0.354-0.121c0.103-0.042,0.208-0.088,0.295-0.154c0.004-0.004,0.009-0.009,0.012-0.011
			c0.123-0.099,0.219-0.224,0.27-0.377c0.04-0.119,0.078-0.239,0.104-0.361c0.073-0.365,0.094-0.735,0.101-1.106
			c0.005-0.29,0.014-0.581,0.057-0.867c0.052-0.335,0.062-0.673,0.091-1.009c0.022-0.263,0.033-0.529,0.057-0.792
			c0.008-0.103,0.028-0.203,0.052-0.305c0.02-0.089,0.05-0.177,0.078-0.265c0.029-0.098,0.057-0.196,0.091-0.291
			c0.005-0.015,0.01-0.029,0.016-0.043c0.029-0.07,0.075-0.139,0.128-0.194c0.06-0.063,0.133-0.116,0.207-0.167
			c0.069-0.047,0.147-0.087,0.221-0.13c0.141-0.083,0.301-0.115,0.454-0.168c0.005-0.003,0.011-0.003,0.016-0.003
			c0.033-0.001,0.067-0.003,0.101-0.005c0.061-0.005,0.123-0.007,0.183-0.01c0.039-0.001,0.071-0.011,0.072-0.051
			c0-0.041-0.016-0.082-0.016-0.122C21.246,8.012,21.259,7.968,21.265,7.928z"/>
		<path fill="#020202" d="M13.305,8.235c-0.358-0.017-0.653-0.063-1.015-0.008c-0.086,0.014-0.182,0.021-0.275,0.028
			c-0.144,0.01-0.292,0.019-0.422,0.049c-0.007,0.102,0.009,0.2,0.043,0.294c0.14,0.371,0.575,0.656,0.958,0.625
			c0.141-0.011,0.271-0.07,0.382-0.157c0.08-0.062,0.148-0.134,0.202-0.214C13.209,8.806,13.431,8.241,13.305,8.235z"/>
		<path fill="#020202" d="M9.832,8.014C9.442,8.006,9.01,7.887,8.625,7.945C8.566,7.954,8.254,8.034,8.228,8.08
			c-0.025,0.047-0.01,0.131,0.026,0.227c0.07,0.189,0.223,0.426,0.288,0.494C8.768,9.034,9.09,9.154,9.391,8.979
			c0.028-0.017,0.057-0.036,0.082-0.058c0.129-0.103,0.22-0.247,0.282-0.399c0.009-0.021,0.032-0.107,0.054-0.203
			C9.84,8.178,9.868,8.015,9.832,8.014z"/>
		<path fill="#020202" d="M11.511,9.384c-0.056-0.066-0.13-0.103-0.204-0.14c-0.084-0.044-0.162-0.096-0.219-0.176
			c-0.025-0.038-0.06-0.064-0.117-0.081c-0.027,0.079-0.064,0.147-0.066,0.227c0,0.09-0.003,0.179,0.003,0.268
			c0,0.008,0,0.017,0.001,0.025c0.02,0.246,0.139,0.431,0.356,0.548c0.021,0.011,0.038,0.018,0.057,0.022
			c0.062,0.016,0.115-0.007,0.169-0.062c0.055-0.059,0.076-0.129,0.081-0.205c0.006-0.087,0.007-0.173,0.007-0.26
			C11.578,9.486,11.553,9.435,11.511,9.384z"/>
		<path fill="#020202" d="M10.631,9.158c-0.004-0.04-0.02-0.08-0.031-0.124c-0.025,0.001-0.036,0.003-0.047,0.002
			c-0.098-0.007-0.176,0.021-0.237,0.106c-0.058,0.078-0.122,0.151-0.19,0.22c-0.041,0.041-0.072,0.087-0.084,0.14
			c-0.002,0.008-0.005,0.016-0.006,0.023c-0.014,0.102-0.017,0.205-0.017,0.308c-0.001,0.121,0.024,0.161,0.142,0.192
			c0.057,0.017,0.112,0.022,0.165,0.012c0.044-0.011,0.087-0.034,0.126-0.076c0.053-0.057,0.082-0.124,0.107-0.194
			C10.627,9.569,10.643,9.364,10.631,9.158z"/>
	</g>
	<path fill="#CB2027" d="M5.977,7.194C5.99,7.21,6.005,7.225,6.021,7.239c-0.081-0.072,0.2-0.825,0.235-0.935
		c0.076-0.238,0.25-0.439,0.405-0.638c0.308-0.395,0.657-0.758,1.053-1.065c0.82-0.64,1.814-0.986,2.855-0.984
		c0.79,0.002,1.808,0.028,2.47,0.514c0.216,0.159,0.369,0.334,0.62,0.457c0.427,0.212,0.832,0.491,1.143,0.867
		c0.397,0.479,0.505,1.105,0.837,1.581c-0.038-0.055,0.013-0.275,0.015-0.343c0.006-0.171,0.005-0.342,0.001-0.514
		c-0.007-0.378,0.04-0.827-0.061-1.188c-0.106-0.383-0.313-0.784-0.542-1.106c-0.286-0.4-0.76-0.613-1.105-0.954
		c-0.321-0.316-0.728-0.644-1.127-0.855c-0.308-0.162-0.6-0.169-0.951-0.202c-0.695-0.065-1.398-0.092-2.096-0.022
		C8.395,1.987,7.082,2.546,6.317,3.75C6.07,4.139,5.914,4.447,5.824,4.908C5.784,5.11,5.757,5.319,5.726,5.522
		C5.678,5.849,5.711,6.169,5.772,6.49C5.814,6.717,5.819,7.011,5.977,7.194z"/>
	<path fill="#FFFFFF" d="M6.214,5.231c0.03-0.104,0.083-0.246,0.204-0.271c0.067-0.015,0.08-0.014,0.096,0.057
		c0.02,0.096-0.064,0.315-0.16,0.354C6.246,5.417,6.188,5.327,6.214,5.231z"/>
	<path fill="#FFFFFF" d="M6.677,4.214C6.644,4.292,6.529,4.479,6.614,4.557C6.837,4.761,6.935,3.948,6.677,4.214"/>
	<path fill="#FFFFFF" d="M7.652,4.416C7.757,4.383,7.825,4.198,7.739,4.11c-0.098-0.1-0.224,0.018-0.268,0.106
		C7.389,4.38,7.476,4.473,7.652,4.416z"/>
	<path fill="#FFFFFF" d="M6.983,3.573C7.09,3.539,7.158,3.355,7.072,3.268c-0.099-0.101-0.224,0.016-0.27,0.105
		C6.722,3.537,6.808,3.628,6.983,3.573z"/>
	<path fill="#FFFFFF" d="M7.657,2.784C7.814,3.107,7.502,3.521,7.55,2.855"/>
	<path fill="#FFFFFF" d="M7.352,3.459C7.181,3.407,7.051,3.958,7.233,3.951c0.103-0.005,0.136-0.108,0.164-0.196
		c0.017-0.057,0.067-0.182,0.027-0.237C7.399,3.484,7.376,3.466,7.352,3.459z"/>
	<path fill="#FFFFFF" d="M7.158,4.647c0.037,0.095-0.045,0.209-0.086,0.285C7.04,4.991,6.979,5.12,6.884,5.083
		C6.695,5.009,7.061,4.403,7.158,4.647z"/>
	<path fill="#FFFFFF" d="M6.375,4.017C6.318,3.896,6.463,3.632,6.577,3.619c0.151-0.018,0.035,0.245-0.003,0.312
		C6.549,3.978,6.496,4.11,6.413,4.062C6.396,4.051,6.383,4.036,6.375,4.017z"/>
	<path fill="#AA1F26" d="M9.953,3.246C9.839,3.371,9.786,3.532,9.636,3.647C9.447,3.792,9.229,3.879,9.022,3.994
		c-0.2,0.11-0.369,0.254-0.552,0.389c-0.247,0.183-0.513,0.34-0.77,0.508c-0.316,0.206-0.59,0.47-0.836,0.756
		c-0.257,0.302-0.382,0.56-0.49,0.939C6.32,6.773,6.298,6.96,6.25,7.149C6.207,7.316,6.142,7.473,6.091,7.629
		c0.017-0.051-0.142-0.358-0.147-0.458c-0.011-0.18,0.042-0.353,0.08-0.525c0.117-0.526,0.445-0.88,0.802-1.266
		C7.251,4.918,7.727,4.471,8.292,4.19c0.2-0.101,0.38-0.219,0.592-0.294c0.164-0.059,0.322-0.121,0.479-0.202
		c0.129-0.066,0.229-0.147,0.332-0.246c0.098-0.096,0.106-0.259,0.221-0.331c0.028,0.032,0.044,0.074,0.049,0.117"/>
	<path fill="#AA1F26" d="M9.207,3.85C9.225,3.86,9.454,3.829,9.526,3.825c0.154-0.007,0.303-0.054,0.453-0.08
		c0.201-0.036,0.395-0.038,0.597-0.045c0.131-0.003,0.356,0.01,0.466-0.073c0.002-0.002-0.302-0.097-0.336-0.102
		c-0.104-0.015-0.207-0.029-0.312-0.03c-0.168-0.004-0.343,0.006-0.511,0.031c-0.202,0.031-0.41,0.127-0.591,0.23
		c-0.048,0.026-0.11,0.068-0.107,0.125c0.04,0.009,0.07-0.009,0.093-0.044"/>
	<path fill="#FFFFFF" d="M6.034,4.884C5.888,4.982,5.868,4.873,5.903,4.737C5.93,4.64,5.971,4.528,6.075,4.492
		c0.092-0.031,0.15,0.044,0.136,0.13C6.195,4.715,6.109,4.834,6.034,4.884z"/>
	<path fill="#FFFFFF" d="M5.892,5.707c0.05-0.061,0.168-0.098,0.221-0.016c0.062,0.096-0.06,0.357-0.184,0.353
		C5.788,6.036,5.829,5.78,5.892,5.707z"/>
	<path fill="#FFFFFF" d="M8.498,3.879C8.545,3.632,7.95,3.794,8.011,4c0.017,0.055,0.161,0.074,0.223,0.071
		C8.333,4.065,8.478,3.987,8.498,3.879z"/>
	<path fill="#FFFFFF" d="M10.284,3.381c0.105-0.07,0.115-0.301-0.042-0.314c-0.136-0.011-0.28,0.192-0.187,0.304
		C10.102,3.423,10.231,3.417,10.284,3.381z"/>
	<path fill="#AA1F26" d="M10.225,3.198c0.084,0.136,0.271,0.265,0.4,0.355c0.118,0.083,0.315,0.13,0.458,0.142
		c0.458,0.039,0.875,0.052,1.311,0.212c0.448,0.165,0.746,0.517,1.142,0.758c0.191,0.117,0.314,0.21,0.481,0.358
		c0.203,0.183,0.396,0.39,0.578,0.593c0.232,0.258,0.467,0.486,0.612,0.798c0.077,0.162,0.148,0.322,0.234,0.478
		c0.031,0.056,0.061,0.172,0.113,0.209c0.077,0.057,0.114-0.034,0.125-0.13c0.035-0.353-0.358-0.811-0.526-1.099
		c-0.136-0.231-0.213-0.43-0.431-0.599c-0.238-0.185-0.429-0.421-0.662-0.608c-0.221-0.178-0.458-0.338-0.675-0.529
		c-0.235-0.208-0.444-0.405-0.753-0.491c-0.297-0.082-0.609-0.124-0.914-0.171c-0.337-0.054-0.795,0.037-1.08-0.166
		c-0.109-0.078-0.229-0.155-0.354-0.201c-0.035-0.014-0.136-0.062-0.17-0.031c-0.063,0.062,0.057,0.107,0.099,0.11"/>
	<path fill="#FFFFFF" d="M13.791,4.063c0.016-0.12-0.139-0.289-0.266-0.278C13.42,3.793,13.43,3.88,13.469,3.944
		C13.504,4.003,13.77,4.229,13.791,4.063z"/>
	<path fill="#FFFFFF" d="M13.933,3.537c-0.022-0.107-0.29-0.342-0.379-0.188c-0.062,0.108,0.147,0.295,0.231,0.327
		C13.893,3.72,13.953,3.64,13.933,3.537z"/>
	<path fill="#FFFFFF" d="M14.016,3.098c-0.036-0.084-0.399-0.322-0.334-0.11c0.023,0.076,0.14,0.229,0.222,0.242
		C13.997,3.245,14.045,3.169,14.016,3.098z"/>
	<path fill="#FFFFFF" d="M14.22,4.187c0.062,0.047,0.213,0.358,0.052,0.367c-0.048,0.003-0.172-0.114-0.207-0.145
		c-0.057-0.05-0.129-0.131-0.088-0.212C14.021,4.108,14.158,4.14,14.22,4.187z"/>
	<path fill="#FFFFFF" d="M14.499,3.9c-0.041-0.086-0.18-0.161-0.273-0.157c-0.105,0.003-0.177,0.12-0.113,0.21
		c0.038,0.054,0.204,0.115,0.27,0.131C14.499,4.108,14.545,3.996,14.499,3.9z"/>
	<path fill="#FFFFFF" d="M14.473,3.425c-0.088-0.031-0.428-0.162-0.315,0.067c0.047,0.096,0.197,0.179,0.3,0.176
		C14.646,3.662,14.63,3.479,14.473,3.425z"/>
	<path fill="#FFFFFF" d="M14.93,4.933c0.091-0.023,0.065-0.163,0.023-0.227c-0.047-0.076-0.188-0.17-0.283-0.139
		C14.484,4.63,14.797,4.965,14.93,4.933z"/>
	<path fill="#FFFFFF" d="M15.087,4.417c0.081-0.016,0.092-0.11,0.061-0.182c-0.031-0.073-0.237-0.205-0.325-0.19
		C14.623,4.076,14.962,4.441,15.087,4.417z"/>
	<path fill="#FFFFFF" d="M15.444,5.609c0.12-0.165-0.196-0.633-0.337-0.396c-0.033,0.057,0.007,0.162,0.03,0.218
		C15.179,5.527,15.33,5.765,15.444,5.609z"/>
	<path fill="#FFFFFF" d="M15.558,4.995c0.005-0.034-0.046-0.161-0.064-0.195c-0.021-0.042-0.062-0.073-0.104-0.09
		c-0.094-0.034-0.178,0.01-0.149,0.116C15.262,4.913,15.531,5.193,15.558,4.995z"/>
	<path fill="#FFFFFF" d="M15.617,6.226c0.04-0.093,0.012-0.313-0.085-0.364c-0.15-0.08-0.172,0.136-0.167,0.234
		c0.003,0.059,0.004,0.144,0.055,0.187C15.488,6.34,15.585,6.301,15.617,6.226z"/>
	<path fill="#FFFFFF" d="M13.135,3.627c0.12-0.038,0.074-0.225-0.001-0.309c-0.058-0.065-0.244-0.179-0.337-0.143
		C12.569,3.267,12.957,3.684,13.135,3.627z"/>
	<path fill="#FFFFFF" d="M12.902,2.847c0.044,0.174,0.443,0.391,0.383,0.087c-0.02-0.094-0.118-0.185-0.202-0.223
		c-0.078-0.036-0.256,0.018-0.154,0.126"/>
	<path fill="#FFFFFF" d="M13.48,2.653c-0.002-0.205-0.448-0.283-0.362-0.093C13.157,2.648,13.481,2.828,13.48,2.653z"/>
	<path fill="#FFFFFF" d="M12.388,3.237c0.004-0.132-0.175-0.181-0.275-0.189c-0.17-0.018-0.341,0.117-0.125,0.21
		C12.079,3.298,12.383,3.434,12.388,3.237z"/>
	<path fill="#FFFFFF" d="M9.822,1.944c0.227,0.231-0.551,0.306-0.327,0.039c0.032-0.038,0.084-0.067,0.14-0.081
		C9.702,1.887,9.775,1.896,9.822,1.944z"/>
	<g>
		<path fill="#AA1F26" d="M9.947,2.233c0.078-0.026,0.114-0.119,0.18-0.181c0.127-0.119,0.303-0.195,0.46-0.269
			c0.419-0.194,0.907-0.349,1.369-0.396c0.528-0.055,1.056,0.049,1.58-0.074c0.05-0.013,0.521-0.2,0.528-0.108
			c0.006,0.067-0.041,0.119-0.058,0.179c-0.016,0.055-0.011,0.102-0.027,0.153c-0.041,0.132-0.144,0.269-0.215,0.387
			c-0.147,0.245-0.319,0.476-0.512,0.687c-0.31,0.344-0.611,0.592-1.083,0.636c-0.355,0.032-0.796,0.078-1.141-0.023
			c-0.318-0.092-0.596-0.169-0.865-0.382c-0.143-0.111-0.385-0.616-0.093-0.714"/>
		<path fill="#E92F3E" d="M10.587,1.632c0.419-0.196,0.907-0.351,1.369-0.397c0.528-0.054,1.056,0.05,1.58-0.075
			c0.289-0.067,0.546-0.212,0.813-0.331c0.087-0.038,0.171-0.084,0.246-0.141c-0.102,0.081-0.215,0.152-0.31,0.242
			c-0.118,0.109-0.206,0.26-0.279,0.401c-0.223,0.437-0.42,0.758-0.754,1.127c-0.31,0.343-0.611,0.592-1.083,0.635
			c-0.355,0.031-0.796,0.078-1.141-0.022c-0.318-0.093-0.596-0.17-0.865-0.383c-0.125-0.099-0.199-0.285-0.226-0.436
			C9.884,1.942,10.371,1.731,10.587,1.632z"/>
		<path fill="#CB2027" d="M10.626,1.7c0.419-0.194,0.906-0.348,1.368-0.396c0.528-0.055,1.058,0.049,1.581-0.074
			c0.339-0.081,0.592-0.227,0.867-0.433c0.157-0.117,0.331-0.318,0.52-0.38C14.61,0.691,14.254,0.997,14.047,1.4
			c-0.225,0.436-0.422,0.758-0.756,1.128c-0.308,0.341-0.611,0.592-1.082,0.635c-0.356,0.032-0.795,0.078-1.141-0.023
			c-0.318-0.094-0.596-0.169-0.866-0.382c-0.157-0.124-0.27-0.374-0.206-0.575C10.075,1.938,10.414,1.799,10.626,1.7z"/>
		<path fill="#AA1F26" d="M10.236,2.301c0.097-0.156,0.313-0.212,0.48-0.249c0.121-0.026,0.248-0.029,0.371-0.044
			c0.105-0.012,0.208-0.021,0.314-0.012c0.127,0.011,0.267,0,0.381,0.061c-0.18-0.031-0.422-0.009-0.612,0.013
			c-0.201,0.023-0.408,0.045-0.587,0.14c-0.071,0.039-0.242,0.118-0.246,0.221c-0.003,0.1,0.2,0.131,0.271,0.128
			c0.118-0.003,0.244-0.029,0.359-0.058c0.137-0.032,0.268-0.08,0.399-0.127c0.07-0.025,0.141-0.051,0.211-0.075
			c0.056-0.018,0.113-0.055,0.171-0.059c-0.054,0.017-0.106,0.071-0.156,0.103c-0.104,0.064-0.215,0.131-0.328,0.178
			c-0.082,0.036-0.166,0.064-0.254,0.089c-0.089,0.024-0.178,0.037-0.269,0.052c-0.146,0.021-0.299,0.074-0.432-0.025
			C10.208,2.557,10.166,2.415,10.236,2.301z"/>
	</g>
	<g>
		<path fill="#AA1F26" d="M9.325,3.584c0.233-0.121,0.476-0.219,0.517-0.498c0.017-0.12,0.036-0.281,0.018-0.403
			c-0.067-0.438-0.812-0.634-1.16-0.714C8.339,1.887,7.955,1.976,7.61,2.082C7.429,2.138,7.252,2.208,7.072,2.271
			C6.928,2.323,6.79,2.302,6.644,2.357C6.549,2.391,6.455,2.43,6.36,2.462C6.163,2.53,5.931,2.595,5.723,2.613
			C5.569,2.627,5.44,2.484,5.33,2.391c-0.187-0.158-0.3-0.403-0.487-0.555c0.062,0.103,0.081,0.229,0.142,0.337
			C5.037,2.268,5.11,2.357,5.182,2.438C5.32,2.595,5.439,2.759,5.603,2.893c0.173,0.143,0.363,0.271,0.565,0.375
			C6.511,3.445,6.94,3.56,7.311,3.693c0.192,0.068,0.342,0.087,0.54,0.123C8.3,3.899,8.907,3.801,9.325,3.584z"/>
		<path fill="#E92F3E" d="M9.325,3.299c0.233-0.12,0.476-0.219,0.517-0.497c0.017-0.121,0.036-0.281,0.018-0.402
			C9.792,1.96,9.048,1.766,8.699,1.685c-0.56-0.127-1.285,0.173-1.803,0.37c-0.417,0.159-0.94,0.188-1.361,0.044
			C5.43,2.062,5.317,2.013,5.218,1.96c-0.13-0.067-0.235-0.114-0.373-0.145C4.953,1.84,5.026,2.002,5.082,2.084
			c0.072,0.104,0.168,0.187,0.254,0.28c0.229,0.254,0.529,0.462,0.832,0.619C6.511,3.162,6.94,3.276,7.311,3.409
			c0.192,0.069,0.342,0.086,0.54,0.123C8.3,3.614,8.907,3.517,9.325,3.299z"/>
		<path fill="#CB2027" d="M9.325,3.44c0.233-0.12,0.476-0.219,0.517-0.496C9.858,2.822,9.878,2.662,9.859,2.54
			c-0.067-0.437-0.812-0.633-1.16-0.712C8.14,1.699,7.414,2,6.896,2.197C6.141,2.484,5.451,2.27,4.834,1.794
			c0.255,0.562,0.794,1.052,1.334,1.33c0.343,0.18,0.772,0.294,1.143,0.428c0.192,0.068,0.342,0.086,0.54,0.122
			C8.3,3.757,8.907,3.658,9.325,3.44z"/>
		<path fill="#AA1F26" d="M9.824,2.604c-0.043-0.059-0.117-0.099-0.21-0.125C9.474,2.44,9.31,2.426,9.164,2.433
			c-0.188,0.01-0.38,0.008-0.57,0.023C8.497,2.464,8.395,2.462,8.302,2.492C8.244,2.51,8.137,2.515,8.095,2.563
			c0.056,0.003,0.116-0.02,0.172-0.022c0.129-0.005,0.254-0.018,0.383-0.018c0.124,0,0.25-0.011,0.373-0.007
			C9.163,2.523,9.3,2.56,9.436,2.588c0.086,0.02,0.215,0.066,0.21,0.18C9.64,2.885,9.365,2.946,9.269,2.976
			c-0.366,0.11-0.751-0.02-1.069-0.201C8.315,2.994,8.593,3.1,8.821,3.138C9.074,3.181,9.357,3.186,9.59,3.061
			c0.103-0.056,0.253-0.124,0.273-0.25C9.878,2.723,9.863,2.655,9.824,2.604z"/>
	</g>
	<g>
		<path fill="#AA1F26" d="M9.791,3.227c-0.144-0.1-0.125-0.288-0.172-0.435C9.563,2.629,9.458,2.524,9.635,2.391
			c0.109-0.083,0.27-0.103,0.396-0.048c0.258,0.11,0.221,0.568,0.306,0.819C10.342,3.174,9.875,3.285,9.791,3.227z"/>
		<path fill="#CB2027" d="M10.449,3.095c0.002,0.009-0.482,0.144-0.579,0.033C9.812,3.061,9.797,2.955,9.77,2.874
			C9.714,2.723,9.566,2.546,9.683,2.385c0.099-0.136,0.311-0.173,0.46-0.109C10.4,2.386,10.363,2.844,10.449,3.095z"/>
		<path fill="#E92F3E" d="M9.806,2.357c0.181-0.091,0.588-0.14,0.62,0.159c0.019,0.161,0.125,0.403,0.024,0.556
			c-0.079,0.119-0.299,0.132-0.427,0.129c0.125-0.069,0.239-0.145,0.293-0.278c0.051-0.127,0.057-0.29-0.049-0.392
			c-0.108-0.102-0.43-0.192-0.563-0.118C9.787,2.349,9.87,2.307,9.982,2.322"/>
		<path fill="#AA1F26" d="M9.859,2.504c0.328-0.029,0.362,0.487,0.28,0.695C10.025,3.22,9.854,3.282,9.824,3.124
			c0.015,0.085,0.185,0.03,0.217-0.013c0.043-0.059,0.034-0.146,0.021-0.213C10.039,2.769,9.97,2.587,9.859,2.504z"/>
	</g>
	<path fill="#FFFFFF" d="M7.976,2.098c0.139-0.279,0.721-0.152,0.495,0.135C8.339,2.399,7.828,2.396,7.976,2.098z"/>
	<path fill="#FFFFFF" d="M7.789,2.844C7.736,3.174,7.086,2.985,7.23,2.739c0.068-0.117,0.343-0.204,0.462-0.137
		C7.763,2.644,7.803,2.768,7.789,2.844z"/>
	<path fill="#FFFFFF" d="M8.438,3.131C8.354,3.142,8.249,3.112,8.181,3.195c-0.066,0.081-0.04,0.131,0.04,0.175
		c0.102,0.055,0.262,0.073,0.377,0.062C8.879,3.403,8.534,3.093,8.438,3.131"/>
	<path fill="#FFFFFF" d="M6.733,2.874C6.846,3.05,6.645,3.055,6.515,3.03C6.408,3.01,6.278,2.967,6.238,2.853
		C6.199,2.747,6.312,2.674,6.406,2.678C6.506,2.682,6.683,2.794,6.733,2.874z"/>
	<path fill="#FFFFFF" d="M5.502,2.394c-0.1,0.239,0.561,0.322,0.471,0.091C5.95,2.426,5.819,2.379,5.764,2.36
		C5.681,2.332,5.545,2.292,5.502,2.394z"/>
	<path fill="#FFFFFF" d="M9.246,2.92c0.009-0.006,0.016-0.012,0.021-0.018C9.354,2.811,9.294,2.733,9.203,2.68
		C9.074,2.606,8.628,2.536,8.777,2.812C8.841,2.934,9.127,2.997,9.246,2.92z"/>
	<path fill="#FFFFFF" d="M12.153,1.737c-0.146,0.268-0.72,0.044-0.439-0.163C11.846,1.479,12.295,1.48,12.153,1.737z"/>
	<path fill="#FFFFFF" d="M12.085,2.682c-0.02,0.154-0.183,0.208-0.317,0.189C11.66,2.855,11.47,2.802,11.6,2.66
		C11.705,2.544,12.124,2.379,12.085,2.682z"/>
	<path fill="#FFFFFF" d="M12.606,2.324c-0.017-0.005-0.033-0.009-0.05-0.018c-0.124-0.063-0.122-0.207-0.038-0.302
		c0.087-0.102,0.252-0.147,0.368-0.088c0.127,0.062,0.194,0.196,0.067,0.303C12.873,2.288,12.724,2.35,12.606,2.324z"/>
	<path fill="#FFFFFF" d="M13.237,1.784c0.28,0.128,0.616-0.447,0.229-0.372C13.312,1.441,12.957,1.656,13.237,1.784z"/>
	<path fill="#FFFFFF" d="M11.085,2.205c0.132,0.043,0.053,0.154-0.018,0.199c-0.069,0.043-0.145,0.063-0.226,0.078
		c-0.053,0.008-0.18-0.009-0.194-0.075C10.623,2.286,11.002,2.181,11.085,2.205z"/>
	<path d="M7.282,3.641C6.499,3.48,5.476,3.333,5.095,2.547C4.943,2.235,4.118,1.456,4.889,1.376
		c0.365-0.039,0.426,0.297,0.759,0.387C6.043,1.871,6.485,1.691,6.874,1.62c0.264-0.05,0.552-0.016,0.819-0.034
		C7.986,1.565,8.29,1.598,8.586,1.631c0.48,0.054,0.871,0.245,1.174,0.625c0.387-0.349,0.684-0.667,1.185-0.874
		c0.479-0.199,0.993-0.302,1.503-0.397c0.396-0.074,0.808-0.09,1.209-0.135c0.365-0.041,0.498-0.218,0.797-0.41
		c0.229-0.148,0.296,0.055,0.562,0.073c-0.014,0.206-0.238,0.426-0.349,0.596c-0.149,0.231-0.306,0.456-0.497,0.654
		c-0.48,0.497-1.028,1.221-1.706,1.423c-0.631,0.187-1.557,0.466-2.101-0.049c0.972,0.166,1.842-0.102,2.648-0.617
		c0.301-0.192,0.603-0.455,0.804-0.751c0.063-0.094,0.368-0.531,0.283-0.637c-0.082-0.101-0.262,0.062-0.334,0.095
		c-0.277,0.122-0.639,0.149-0.936,0.22C12.464,1.532,12.1,1.621,11.727,1.67c-0.418,0.056-0.809,0.085-1.199,0.255
		c-0.273,0.121-0.486,0.316-0.738,0.454C9.388,2.033,8.803,1.955,8.29,1.932c-0.565-0.026-1.021,0.06-1.514,0.307
		C6.514,2.37,6.296,2.382,6.005,2.316c-0.174-0.04-0.413-0.211-0.474,0.041C5.457,2.674,5.992,2.788,6.198,2.875
		c0.456,0.196,0.889,0.453,1.383,0.548c0.44,0.084,1.015,0.107,1.45-0.017c0.217-0.062,0.554-0.384,0.775-0.211
		c-0.144,0.278-0.71,0.361-0.995,0.432C8.311,3.75,7.787,3.745,7.282,3.641z"/>
	<path d="M10.263,2.169c-0.013-0.011-0.023-0.02-0.034-0.029C10.08,2.021,9.542,2.036,9.43,2.196
		C9.317,2.359,9.443,2.712,9.477,2.888c0.04,0.21,0.098,0.405,0.32,0.475c0.145,0.046,0.602,0.008,0.696-0.109
		C10.645,3.069,10.406,2.313,10.263,2.169z M9.951,3.102c-0.015-0.004-0.028-0.006-0.04-0.01C9.677,3.017,9.615,2.696,9.643,2.479
		c0.003-0.017,0.29-0.016,0.316-0.011c0.139,0.027,0.174,0.077,0.234,0.198C10.314,2.907,10.277,3.164,9.951,3.102z"/>
	<path d="M6.338,4.108c0.127-0.172,0.351-0.354,0.4-0.57c0.053-0.239-0.33-0.371-0.52-0.264C5.994,3.403,5.79,3.771,5.704,3.999
		C5.546,4.411,5.473,5.007,5.487,5.446C5.5,5.85,5.588,6.299,5.678,6.694C5.762,7.062,5.893,7.432,6.16,7.706
		c0.134-0.394-0.1-0.81-0.213-1.175c-0.113-0.36-0.101-0.763-0.113-1.137C5.818,4.897,6.049,4.493,6.338,4.108z"/>
	<path d="M13.196,2.618c0.275-0.012,0.546,0.404,0.732,0.573c0.272,0.246,0.565,0.465,0.807,0.747
		c0.302,0.353,0.562,0.876,0.562,1.351c-0.001,0.479,0.199,0.882,0.245,1.357c0.022,0.249,0.036,0.539-0.044,0.776
		c-0.018,0.059-0.229,0.454,0.014,0.31c0.078-0.046,0.141-0.333,0.171-0.422c0.214-0.638,0.074-1.303,0.022-1.947
		c-0.038-0.476-0.09-0.939-0.384-1.338c-0.212-0.287-0.448-0.608-0.763-0.791c-0.332-0.195-0.553-0.422-0.841-0.688
		c-0.309-0.285-0.299-0.102-0.593,0.047"/>
	<path d="M9.906,3.305c-0.114,0.27-0.332,0.691-0.686,0.658C9.35,3.816,9.52,3.695,9.64,3.534C9.724,3.423,9.782,3.23,9.953,3.257"
		/>
	<path d="M10.635,3.495c-0.146-0.094-0.209-0.305-0.389-0.336c-0.034,0.598,0.863,0.743,1.26,0.893
		c0.222,0.083,0.44,0.165,0.658,0.258c0.35,0.151,0.726,0.245,1.069,0.411c0.104,0.051,0.86,0.545,0.843,0.612
		c0.107-0.42-0.925-0.887-1.186-1.037c-0.325-0.188-0.676-0.292-1.042-0.376C11.422,3.822,11.011,3.734,10.635,3.495z"/>
	<path d="M8.273,4.422c0.214-0.146,0.46-0.249,0.668-0.401C9.229,3.81,9.531,3.636,9.77,3.367C9.766,3.371,9.752,3.525,9.74,3.553
		C9.702,3.642,9.615,3.719,9.548,3.786C9.439,3.896,9.339,4.029,9.223,4.13C8.884,4.427,8.439,4.628,8.082,4.912
		c-0.26,0.207-0.75,0.389-0.865,0.725c0.084-0.244,0.28-0.444,0.453-0.629C7.859,4.806,8.041,4.58,8.273,4.422z"/>
	<path d="M9.717,1.878c-0.115,0.007-1.056,0.19-0.995-0.095c0.011-0.056,0.172-0.105,0.21-0.124
		c0.191-0.085,0.382-0.122,0.591-0.124c0.392-0.002,0.795-0.109,1.147,0.076c-0.057-0.03-0.354,0.229-0.438,0.25
		C10.065,1.905,9.886,1.869,9.717,1.878z"/>
	<path d="M9.173,4.359c-0.181,0.038-0.357,0.056-0.52,0.033c0.172-0.259,0.28-0.365,0.582-0.446
		c0.307-0.081,0.623-0.092,0.936-0.139c0.245-0.037,1.237-0.209,1.369,0.104c-0.092,0.004-0.192-0.011-0.281,0.006
		c-0.184,0.034-0.311,0.102-0.503,0.112c-0.228,0.011-0.456,0.054-0.68,0.098C9.803,4.181,9.483,4.296,9.173,4.359z"/>
</g>
</svg>
